# xmcd
# Track frame offsets:
# 183
# 10938
# 23863
# 33128
# 48113
# 71168
# 97015
# 114335
# 131863
# 151740
# 168500
# 189293
#
# Disc length: 2726 seconds
# Revision: 0
# Processed by: cddbd v1.4PL0 Copyright (c) Steve Scherf et al.
# Submitted via: VisiTrax 2.9.5.180 - For more info visit www.synapsa.com
#
DISCID=920aa40c
DTITLE=Emmylou Harris - Live USA
DYEAR=1991
DGENRE=
TTITLE0=If you love me half as much as I love you
TTITLE1=Lonesome cowboy
TTITLE2=Guess things happen that way
TTITLE3=This time
TTITLE4=Come again no more
TTITLE5=Mansion on the hill
TTITLE6=Instumental 1
TTITLE7=Instrumental 2
TTITLE8=Ol' Montana
TTITLE9=Like strangers
TTITLE10=Lodi
TTITLE11=Instrumental 3
EXTD=
EXTT0=
EXTT1=
EXTT2=
EXTT3=
EXTT4=
EXTT5=
EXTT6=
EXTT7=
EXTT8=
EXTT9=
EXTT10=
EXTT11=
PLAYORDER=
